# xmcd
#
# Track frame offsets:
#	150
#	17792
#	41077
#	61817
#	82192
#	106290
#	128700
#	149822
#	170630
#	192740
#
# Disc length: 2848 seconds
#
# Revision: 0
# Processed by: cddbd v1.5.1PL0 Copyright (c) Steve Scherf et al.
# Submitted via: dBpowerAMP V4.0
#
DISCID=970b1e0a
DTITLE=Sybil - Sybilization
DYEAR=1990
DGENRE=R&B
TTITLE0=Make It Easy On Me
TTITLE1=Open Up The Door
TTITLE2=Love's Got A Hold On Me
TTITLE3=First Lessons In Love
TTITLE4=Go On
TTITLE5=Falling In Love
TTITLE6=Lovely Day
TTITLE7=Let It Rain
TTITLE8=I Wanna Know What It Means
TTITLE9=Gentle Man
EXTD=
EXTT0=
EXTT1=
EXTT2=
EXTT3=
EXTT4=
EXTT5=
EXTT6=
EXTT7=
EXTT8=
EXTT9=
PLAYORDER=
